# xmcd
#
# Track frame offsets: 
#        150
#        24075
#        38400
#        55500
#        79951
#        111076
#        140252
#        167178
#        189093
#        223294
#
# Disc length: 3405 seconds
#
# Revision: 1
# Processed by: cddbd v1.5.2PL0 Copyright (c) Steve Scherf et al.
# Submitted via: ExactAudioCopy v1.0b1
#
DISCID=780d4b0a
DTITLE=David Hazeltine Trio - Cleopatra's Dream
DYEAR=2005
DGENRE=Jazz
TTITLE0=Cleopatra's Dream
TTITLE1=Tempus Fugit
TTITLE2=Glass Enclosure
TTITLE3=Wail
TTITLE4=Bouncing With Bud
TTITLE5=Danceland
TTITLE6=Strictly Confidential
TTITLE7=Dance Of Infidels
TTITLE8=I'll Keep Loving You
TTITLE9=This One's For Bud
EXTD=YEAR: 2005
EXTT0=
EXTT1=
EXTT2=
EXTT3=
EXTT4=
EXTT5=
EXTT6=
EXTT7=
EXTT8=
EXTT9=
PLAYORDER=
